<svg xmlns="http://www.w3.org/2000/svg" width="20" height="20" viewBox="0 0 20 20">
  <g id="Group_472" data-name="Group 472" transform="translate(-58.152 -701.152)">
    <g id="Ellipse_345" data-name="Ellipse 345" transform="translate(58.152 701.152)" fill="rgba(255,255,255,0)" stroke="#001511" stroke-width="1.5">
      <circle cx="10" cy="10" r="10" stroke="none"/>
      <circle cx="10" cy="10" r="9.25" fill="none"/>
    </g>
    <path id="Path_2289" data-name="Path 2289" d="M7.912-27.272c0-1.6-1.394-2.005-2.674-2.316v-2.328a4.769,4.769,0,0,1,1.867.622l.472-1.164a4.94,4.94,0,0,0-2.339-.7V-34.44H4.293v1.3c-1.8.173-2.651,1.2-2.651,2.374,0,1.6,1.371,2.017,2.651,2.328v2.3a4.426,4.426,0,0,1-2.3-.876L1.47-25.843a5.045,5.045,0,0,0,2.823.957v1.279h.945V-24.9C7.048-25.082,7.912-26.1,7.912-27.272ZM3.129-30.833c0-.507.346-.922,1.164-1.049v2.051C3.625-30.026,3.129-30.28,3.129-30.833Zm2.109,4.679v-2.04c.691.2,1.2.461,1.2,1.026C6.437-26.673,6.08-26.281,5.238-26.154Z" transform="translate(63.519 740.258)" fill="#001511"/>
  </g>
</svg>
