<svg xmlns="http://www.w3.org/2000/svg" width="24.866" height="24.53" viewBox="0 0 24.866 24.53">
  <g id="da5ee03c59b6f8e52d7e5bcd2db6aa35_1_" data-name="da5ee03c59b6f8e52d7e5bcd2db6aa35 (1)" transform="translate(-10 -16.64)">
    <g id="Group_483" data-name="Group 483" transform="translate(10 16.64)">
      <path id="Path_2298" data-name="Path 2298" d="M10.5-494.239a.835.835,0,0,0-.369.347l-.127.22v9.464c0,9.156.006,9.47.1,9.7a.762.762,0,0,0,.347.363c6.24,3.527,7.588,4.281,7.737,4.309a.946.946,0,0,0,.825-.352l.149-.193.016-1.8.016-1.8,3.67-.017c3.588-.016,3.676-.016,3.863-.132a1.077,1.077,0,0,0,.314-.3l.127-.182V-480.6H25.462v4.842H19.189l-.011-6.922-.016-6.928-.138-.176a17.685,17.685,0,0,0-2.366-1.442c-1.227-.7-2.267-1.288-2.311-1.315s2.124-.055,5.519-.055h5.6v6.218h1.706v-7.357l-.121-.182a1.621,1.621,0,0,0-.281-.3l-.154-.115-7.935-.017-7.935-.011Z" transform="translate(-10 494.36)"/>
      <path id="Path_2299" data-name="Path 2299" d="M533.252-223.158l-.154.132-.016,1.244-.016,1.244h-2.322c-1.381,0-2.421.027-2.57.061a1.189,1.189,0,0,0-.963,1.178,1.168,1.168,0,0,0,.66,1.09c.215.115.281.121,2.707.138l2.487.016.016,1.238.016,1.244.187.165c.154.138.22.16.369.138.226-.039,5.128-3.577,5.249-3.791a.443.443,0,0,0,.027-.352c-.049-.193-.209-.319-2.581-2.041-2.256-1.634-2.553-1.832-2.735-1.832A.536.536,0,0,0,533.252-223.158Z" transform="translate(-514.086 230.168)"/>
    </g>
  </g>
</svg>
