<svg xmlns="http://www.w3.org/2000/svg" width="23.45" height="25.581" viewBox="0 0 23.45 25.581">
  <g id="notification_1_" data-name="notification (1)" transform="translate(0.001)">
    <path id="Path_88" data-name="Path 88" d="M138.881,451.2A4,4,0,0,0,142.8,448h-7.832A4,4,0,0,0,138.881,451.2Zm0,0" transform="translate(-128.223 -425.617)"/>
    <path id="Path_89" data-name="Path 89" d="M18.132,53.325h-.013a7.47,7.47,0,0,1-7.461-7.461,7.4,7.4,0,0,1,.713-3.162c-.235-.022-.472-.036-.713-.036A7.461,7.461,0,0,0,3.2,50.129V53.1A7.147,7.147,0,0,1,.652,58.571a1.865,1.865,0,0,0-.586,1.914,1.955,1.955,0,0,0,1.917,1.368H19.329a1.954,1.954,0,0,0,1.948-1.478,1.868,1.868,0,0,0-.636-1.825,7.093,7.093,0,0,1-2.509-5.225Zm0,0" transform="translate(0 -40.536)"/>
    <path id="Path_90" data-name="Path 90" d="M266.671,5.329A5.329,5.329,0,1,1,261.341,0,5.329,5.329,0,0,1,266.671,5.329Zm0,0" transform="translate(-243.222)"/>
  </g>
</svg>
